<svg id="svg" version="1.1" xmlns="http://www.w3.org/2000/svg" xmlns:xlink="http://www.w3.org/1999/xlink" width="400" height="126.43419572553431" viewBox="0, 0, 400,126.43419572553431"><g id="svgg"><path id="path0" d="M51.498 6.421 C 49.777 7.477,46.243 9.531,43.645 10.985 C 41.046 12.439,36.288 15.183,33.071 17.084 C 27.751 20.227,11.086 29.835,6.415 32.452 L 4.506 33.521 4.503 62.844 L 4.499 92.167 12.711 96.886 C 21.902 102.169,30.185 106.949,44.769 115.390 C 53.397 120.383,54.813 121.065,55.793 120.698 C 56.814 120.316,67.827 114.018,95.726 97.862 L 105.737 92.065 105.737 77.078 C 105.737 66.462,105.592 62.092,105.241 62.092 C 104.968 62.092,101.273 64.095,97.029 66.543 C 92.786 68.990,84.151 73.976,77.840 77.621 C 60.842 87.440,55.508 90.439,55.039 90.439 C 54.807 90.439,51.445 88.616,47.568 86.389 C 43.690 84.162,40.411 82.340,40.281 82.340 C 40.151 82.340,40.048 84.618,40.051 87.402 L 40.057 92.463 47.504 96.663 C 51.600 98.972,55.214 100.760,55.537 100.637 C 56.062 100.435,70.030 92.425,89.651 81.072 L 96.738 76.972 96.724 82.018 L 96.710 87.064 91.662 89.961 C 84.670 93.973,71.359 101.651,62.767 106.628 C 58.808 108.922,55.359 110.807,55.104 110.817 C 54.736 110.832,36.383 100.458,32.058 97.791 L 31.046 97.167 31.048 72.993 L 31.049 48.819 38.457 44.590 C 42.531 42.263,45.770 40.207,45.654 40.020 C 45.418 39.638,38.871 35.750,37.738 35.320 C 37.284 35.148,35.319 36.047,32.564 37.689 C 30.121 39.145,26.755 41.098,25.084 42.029 L 22.047 43.722 22.047 67.755 C 22.047 80.974,21.895 91.771,21.710 91.750 C 21.524 91.728,19.550 90.661,17.323 89.377 L 13.273 87.044 13.174 63.092 L 13.074 39.141 14.748 38.070 C 15.669 37.480,19.764 35.083,23.847 32.742 C 27.930 30.402,33.498 27.202,36.220 25.631 C 38.943 24.061,44.281 20.988,48.083 18.802 L 54.996 14.829 58.882 17.016 C 64.008 19.901,87.474 33.367,87.656 33.529 C 87.734 33.598,85.839 34.769,83.444 36.130 L 79.089 38.605 77.677 37.795 C 76.901 37.349,72.317 34.701,67.492 31.910 C 62.666 29.118,57.878 26.359,56.853 25.779 L 54.987 24.723 50.650 27.284 C 48.265 28.692,46.472 29.984,46.666 30.155 C 46.860 30.325,52.790 33.768,59.843 37.806 C 66.895 41.844,74.151 46.024,75.965 47.096 C 80.157 49.571,79.111 49.796,88.465 44.405 C 92.891 41.854,98.588 38.575,101.125 37.120 C 103.661 35.664,105.733 34.259,105.728 33.997 C 105.723 33.735,99.800 30.145,92.567 26.018 C 78.140 17.789,68.715 12.346,60.665 7.597 C 54.450 3.931,55.361 4.048,51.498 6.421 M180.253 33.297 C 175.097 35.310,173.235 39.489,173.235 49.044 C 173.235 60.587,175.568 63.933,185.296 66.347 C 192.306 68.086,192.311 68.092,192.498 76.102 C 192.655 82.847,192.322 84.181,190.320 84.816 C 189.470 85.086,189.401 85.410,189.521 88.563 L 189.651 92.013 191.918 91.959 C 198.422 91.801,201.075 87.749,201.458 77.388 C 201.914 65.083,199.411 61.063,189.956 58.910 C 182.571 57.229,182.570 57.227,182.348 48.819 C 182.183 42.519,182.520 41.095,184.372 40.276 C 185.295 39.868,185.377 39.528,185.377 36.114 L 185.377 32.396 183.915 32.417 C 183.110 32.429,181.462 32.825,180.253 33.297 M189.426 36.007 C 189.426 39.405,189.490 39.641,190.507 40.028 C 192.194 40.670,192.336 41.211,192.576 47.919 L 192.801 54.218 196.963 54.348 L 201.125 54.477 201.125 48.243 C 201.125 37.319,197.904 32.396,190.759 32.396 L 189.426 32.396 189.426 36.007 M214.173 33.087 C 208.277 34.918,206.845 38.264,207.052 49.729 C 207.272 61.879,208.744 64.000,218.551 66.298 C 225.004 67.811,225.630 68.461,226.035 74.065 C 226.462 79.990,225.899 83.096,224.134 84.547 C 222.773 85.666,222.714 85.853,222.718 89.039 L 222.722 92.364 225.139 92.115 C 232.557 91.349,234.646 87.817,234.646 76.040 C 234.646 63.831,232.804 61.121,222.933 58.807 C 216.009 57.184,215.525 56.472,215.532 47.919 C 215.537 42.737,215.945 41.194,217.548 40.314 C 218.934 39.553,219.108 39.114,219.116 36.370 C 219.127 32.116,218.546 31.730,214.173 33.087 M222.722 35.944 C 222.722 39.409,222.784 39.641,223.803 40.028 C 225.490 40.670,225.632 41.211,225.872 47.919 L 226.097 54.218 230.259 54.348 L 234.421 54.477 234.421 48.243 C 234.421 37.348,232.021 33.372,224.941 32.533 L 222.722 32.271 222.722 35.944 M344.657 33.138 C 341.876 34.098,339.886 35.698,338.692 37.934 C 336.776 41.522,336.746 83.059,338.658 86.614 C 340.563 90.159,343.967 92.238,347.863 92.238 L 349.606 92.238 349.606 88.976 C 349.606 85.759,349.583 85.695,347.919 84.298 L 346.232 82.882 346.092 63.601 C 345.938 42.492,346.039 41.417,348.274 40.261 C 349.582 39.585,349.606 39.505,349.606 35.984 L 349.606 32.396 348.144 32.417 C 347.340 32.429,345.771 32.753,344.657 33.138 M353.206 35.984 C 353.206 39.482,353.238 39.589,354.501 40.242 C 356.351 41.199,356.520 41.844,356.619 48.369 L 356.708 54.218 361.080 54.348 L 365.451 54.477 365.259 47.598 C 364.964 37.056,361.658 32.396,354.476 32.396 L 353.206 32.396 353.206 35.984 M110.236 62.317 L 110.236 91.821 114.623 91.692 L 119.010 91.564 119.010 78.965 L 119.010 66.367 121.710 66.142 L 124.409 65.917 125.141 63.667 C 125.543 62.430,126.007 60.658,126.173 59.730 L 126.475 58.043 122.862 58.043 L 119.249 58.043 119.130 45.557 L 119.010 33.071 114.623 32.942 L 110.236 32.813 110.236 62.317 M128.684 62.301 L 128.684 91.789 132.907 91.789 L 137.131 91.789 137.294 89.876 C 137.384 88.825,137.458 75.613,137.458 60.517 L 137.458 33.071 133.071 32.942 L 128.684 32.813 128.684 62.301 M145.332 62.317 L 145.332 91.789 149.606 91.789 L 153.881 91.789 153.881 62.317 L 153.881 32.846 149.606 32.846 L 145.332 32.846 145.332 62.317 M157.930 36.670 L 157.930 40.495 163.330 40.495 L 168.729 40.495 168.729 36.670 L 168.729 32.846 163.330 32.846 L 157.930 32.846 157.930 36.670 M241.526 33.183 C 241.445 33.369,241.449 46.631,241.534 62.655 L 241.689 91.789 245.929 91.789 L 250.169 91.789 250.169 62.317 L 250.169 32.846 245.921 32.846 C 243.584 32.846,241.607 32.998,241.526 33.183 M254.218 36.610 L 254.218 40.374 257.332 40.597 C 259.045 40.719,261.475 40.721,262.732 40.600 L 265.017 40.380 265.017 36.613 L 265.017 32.846 259.618 32.846 L 254.218 32.846 254.218 36.610 M270.866 62.317 L 270.866 91.821 275.253 91.692 L 279.640 91.564 279.640 62.317 L 279.640 33.071 275.253 32.942 L 270.866 32.813 270.866 62.317 M283.653 33.453 C 283.525 33.787,283.481 35.457,283.555 37.165 L 283.690 40.270 285.596 40.730 C 289.087 41.572,289.089 41.578,289.089 51.969 C 289.089 62.338,289.064 62.420,285.776 62.861 L 283.915 63.111 283.915 66.786 C 283.915 68.807,284.105 70.654,284.338 70.889 C 284.680 71.234,287.932 82.905,289.660 89.989 L 290.044 91.564 294.664 91.692 C 298.923 91.811,299.264 91.758,299.035 91.017 C 298.898 90.575,298.095 87.683,297.249 84.589 C 296.403 81.496,295.085 76.821,294.320 74.201 L 292.929 69.436 294.889 67.391 C 297.699 64.458,298.090 62.509,298.076 51.519 C 298.062 40.727,297.567 38.403,294.744 35.852 C 291.978 33.353,284.327 31.698,283.653 33.453 M309.834 34.083 C 309.697 34.764,309.170 39.066,308.663 43.645 C 308.155 48.223,306.946 58.245,305.976 65.917 C 305.006 73.588,303.995 81.890,303.729 84.364 C 303.464 86.839,303.140 89.522,303.009 90.326 L 302.771 91.789 307.291 91.789 C 309.777 91.789,311.811 91.715,311.811 91.624 C 311.811 91.534,312.216 88.469,312.711 84.814 C 313.206 81.159,313.611 77.994,313.611 77.780 C 313.611 77.566,314.615 77.390,315.843 77.390 L 318.075 77.390 318.754 75.105 C 319.127 73.849,319.563 72.127,319.721 71.281 L 320.010 69.741 317.255 69.741 L 314.500 69.741 314.740 68.054 C 315.377 63.562,316.311 52.761,316.314 49.844 C 316.315 48.043,316.446 45.202,316.604 43.532 L 316.891 40.495 321.837 40.495 L 326.783 40.495 326.470 37.034 C 326.297 35.131,326.055 33.410,325.931 33.210 C 325.807 33.010,322.191 32.846,317.894 32.846 L 310.083 32.846 309.834 34.083 M368.054 36.635 L 368.054 40.424 371.541 40.572 C 373.459 40.653,379.736 40.662,385.489 40.592 L 395.951 40.463 395.951 36.655 L 395.951 32.846 382.002 32.846 L 368.054 32.846 368.054 36.635 M377.854 45.332 C 377.731 46.507,377.703 57.087,377.793 68.841 C 377.882 80.596,377.954 90.568,377.954 91.001 C 377.953 91.696,378.456 91.789,382.227 91.789 L 386.502 91.789 386.502 67.492 L 386.502 43.195 382.290 43.195 L 378.078 43.195 377.854 45.332 M319.480 45.332 C 319.543 50.842,320.466 60.351,323.757 89.426 L 324.024 91.789 328.491 91.789 C 331.520 91.789,332.958 91.624,332.958 91.279 C 332.958 90.998,332.454 86.695,331.838 81.717 C 331.221 76.739,330.000 66.794,329.124 59.618 C 328.247 52.441,327.413 45.911,327.270 45.107 L 327.009 43.645 323.235 43.645 L 319.460 43.645 319.480 45.332 M158.126 58.632 C 157.995 58.973,157.948 60.751,158.022 62.584 L 158.155 65.917 163.105 65.917 L 168.054 65.917 168.054 62.092 L 168.054 58.268 163.209 58.140 C 159.420 58.040,158.312 58.147,158.126 58.632 M254.414 58.632 C 254.283 58.973,254.236 60.751,254.310 62.584 L 254.443 65.917 259.268 66.044 C 264.868 66.192,264.720 66.331,264.478 61.178 L 264.342 58.268 259.497 58.140 C 255.708 58.040,254.600 58.147,254.414 58.632 M173.994 70.025 C 173.390 70.630,173.649 82.549,174.315 84.763 C 175.591 89.004,178.686 91.571,183.158 92.101 L 185.377 92.364 185.377 88.690 C 185.377 85.226,185.315 84.994,184.296 84.606 C 182.603 83.963,182.466 83.426,182.227 76.490 L 182.002 69.966 178.156 69.838 C 176.041 69.767,174.168 69.851,173.994 70.025 M207.537 70.031 C 206.691 70.385,206.774 81.504,207.645 84.435 C 209.014 89.047,211.885 91.560,216.394 92.094 L 218.673 92.364 218.673 88.690 C 218.673 85.226,218.611 84.994,217.592 84.606 C 215.899 83.963,215.762 83.426,215.523 76.490 L 215.298 69.966 211.699 69.881 C 209.719 69.834,207.846 69.901,207.537 70.031 M357.105 70.041 C 356.940 70.206,356.805 72.930,356.805 76.094 C 356.805 82.414,356.504 83.555,354.532 84.686 C 352.199 86.025,352.776 92.238,355.233 92.238 C 362.089 92.238,365.270 87.940,365.682 78.117 C 366.046 69.435,366.204 69.741,361.371 69.741 C 359.190 69.741,357.270 69.876,357.105 70.041 M158.230 84.439 C 158.065 84.604,157.930 86.325,157.930 88.264 L 157.930 91.789 163.330 91.789 L 168.729 91.789 168.729 87.964 L 168.729 84.139 163.630 84.139 C 160.825 84.139,158.395 84.274,158.230 84.439 M254.518 84.439 C 254.353 84.604,254.218 86.301,254.218 88.210 L 254.218 91.680 256.918 91.876 C 258.403 91.983,260.832 91.983,262.317 91.876 L 265.017 91.680 265.017 87.910 L 265.017 84.139 259.918 84.139 C 257.113 84.139,254.683 84.274,254.518 84.439 " stroke="none" fill="#000000" fill-rule="evenodd"></path></g></svg>